<svg width="50" height="47" viewBox="0 0 50 47" fill="none" xmlns="http://www.w3.org/2000/svg">
<ellipse cx="25" cy="23.5" rx="25" ry="23.5" fill="#F1B8B8"/>
<path d="M23.5 8C21.575 8 20 9.575 20 11.5H16.5C14.575 11.5 13 13.075 13 15H37.5C37.5 13.075 35.925 11.5 34 11.5H30.5C30.5 9.575 28.925 8 27 8H23.5ZM16.5 18.5V35.335C16.5 35.72 16.78 36 17.165 36H33.37C33.755 36 34.035 35.72 34.035 35.335V18.5H30.535V30.75C30.535 31.73 29.765 32.5 28.785 32.5C27.805 32.5 27.035 31.73 27.035 30.75V18.5H23.535V30.75C23.535 31.73 22.765 32.5 21.785 32.5C20.805 32.5 20.035 31.73 20.035 30.75V18.5H16.535H16.5Z" fill="black"/>
</svg>
