<svg width="60" height="47" viewBox="0 0 60 47" fill="none" xmlns="http://www.w3.org/2000/svg">
<ellipse cx="29.9169" cy="23.5" rx="29.9169" ry="23.5" fill="#F1B8B8"/>
<path d="M28.122 8C25.8184 8 23.9336 9.575 23.9336 11.5H19.7452C17.4416 11.5 15.5569 13.075 15.5569 15H44.8754C44.8754 13.075 42.9907 11.5 40.6871 11.5H36.4987C36.4987 9.575 34.6139 8 32.3103 8H28.122ZM19.7452 18.5V35.335C19.7452 35.72 20.0803 36 20.541 36H39.9332C40.3939 36 40.729 35.72 40.729 35.335V18.5H36.5406V30.75C36.5406 31.73 35.6192 32.5 34.4464 32.5C33.2737 32.5 32.3522 31.73 32.3522 30.75V18.5H28.1639V30.75C28.1639 31.73 27.2424 32.5 26.0697 32.5C24.8969 32.5 23.9755 31.73 23.9755 30.75V18.5H19.7871H19.7452Z" fill="black"/>
</svg>
